<svg id="Capa_1" enable-background="new 0 0 512 512" height="512" viewBox="0 0 512 512" width="512" xmlns="http://www.w3.org/2000/svg"><g><path d="m512 313.403v-284.735c0-8.284-6.716-15-15-15h-482c-8.284 0-15 6.716-15 15v284.735zm-261-57.896c0 8.284-6.716 15-15 15h-102.992c-8.284 0-15-6.716-15-15v-72.369c0-8.284 6.716-15 15-15h102.992c8.284 0 15 6.716 15 15zm142.61 15h-97.61c-8.284 0-15-6.716-15-15s6.716-15 15-15h97.61c8.284 0 15 6.716 15 15s-6.715 15-15 15zm0-72.369h-97.61c-8.284 0-15-6.716-15-15s6.716-15 15-15h97.61c8.284 0 15 6.716 15 15s-6.715 15-15 15zm0-81.574h-260.602c-8.284 0-15-6.716-15-15s6.716-15 15-15h260.602c8.284 0 15 6.716 15 15s-6.715 15-15 15z"/><path d="m197.61 442.014v26.318h-4.321c-8.284 0-15 6.716-15 15s6.716 15 15 15h125.422c8.284 0 15-6.716 15-15s-6.716-15-15-15h-4.321v-26.318z"/><path d="m497 411.464c8.284 0 15-6.716 15-15v-53.061h-512v53.061c0 8.284 6.716 15 15 15z"/><path d="m148.008 198.138h72.992v42.369h-72.992z"/></g></svg>